<svg width="121" height="52" viewBox="0 0 121 52" fill="none" xmlns="http://www.w3.org/2000/svg">
<path d="M0 0H120V24V24C81.4835 8.59341 38.5165 8.59341 0 24V24V0Z" fill="#EF4444"/>
<path d="M7.73438 33.6211C8.67188 33.6211 9.55078 33.7904 10.3711 34.1289C11.1914 34.4544 11.9141 34.9232 12.5391 35.5352C13.1771 36.1341 13.6719 36.8503 14.0234 37.6836C14.388 38.5169 14.5703 39.4414 14.5703 40.457C14.5703 41.4727 14.388 42.3971 14.0234 43.2305C13.6719 44.0638 13.1771 44.7865 12.5391 45.3984C11.9141 45.9974 11.1914 46.4661 10.3711 46.8047C9.55078 47.1302 8.67188 47.293 7.73438 47.293C6.79688 47.293 5.91146 47.1302 5.07812 46.8047C4.25781 46.4661 3.52865 45.9974 2.89062 45.3984C2.26562 44.7865 1.77083 44.0638 1.40625 43.2305C1.05469 42.3971 0.878906 41.4727 0.878906 40.457C0.878906 39.4414 1.05469 38.5169 1.40625 37.6836C1.77083 36.8503 2.26562 36.1341 2.89062 35.5352C3.52865 34.9232 4.25781 34.4544 5.07812 34.1289C5.91146 33.7904 6.79688 33.6211 7.73438 33.6211ZM7.73438 36.1797C6.95312 36.1797 6.25 36.3685 5.625 36.7461C5.01302 37.1237 4.53125 37.6315 4.17969 38.2695C3.82812 38.9076 3.65234 39.6367 3.65234 40.457C3.65234 41.2643 3.82812 41.9935 4.17969 42.6445C4.53125 43.2826 5.01302 43.7904 5.625 44.168C6.25 44.5326 6.95312 44.7148 7.73438 44.7148C8.51562 44.7148 9.21224 44.5326 9.82422 44.168C10.4362 43.7904 10.918 43.2826 11.2695 42.6445C11.6211 41.9935 11.7969 41.2643 11.7969 40.457C11.7969 39.6367 11.6211 38.9076 11.2695 38.2695C10.918 37.6315 10.4362 37.1237 9.82422 36.7461C9.21224 36.3685 8.51562 36.1797 7.73438 36.1797ZM22.7539 37.1367V39.207H20.1953V47H17.7148V39.207H16.2109V37.1367H17.7148V36.2578C17.7148 35.5026 17.8711 34.8581 18.1836 34.3242C18.5091 33.7773 18.9323 33.3607 19.4531 33.0742C19.974 32.7878 20.5469 32.6445 21.1719 32.6445C21.5885 32.6445 21.9531 32.6901 22.2656 32.7812C22.5781 32.8724 22.8516 32.9961 23.0859 33.1523V35.2227C22.6562 34.9622 22.1615 34.8385 21.6016 34.8516C21.2109 34.8646 20.8789 34.9948 20.6055 35.2422C20.332 35.4766 20.1953 35.8672 20.1953 36.4141V37.1367H22.7539ZM30.5859 37.1367V39.207H28.0273V47H25.5469V39.207H24.043V37.1367H25.5469V36.2578C25.5469 35.5026 25.7031 34.8581 26.0156 34.3242C26.3411 33.7773 26.7643 33.3607 27.2852 33.0742C27.806 32.7878 28.3789 32.6445 29.0039 32.6445C29.4206 32.6445 29.7852 32.6901 30.0977 32.7812C30.4102 32.8724 30.6836 32.9961 30.918 33.1523V35.2227C30.4883 34.9622 29.9935 34.8385 29.4336 34.8516C29.043 34.8646 28.7109 34.9948 28.4375 35.2422C28.1641 35.4766 28.0273 35.8672 28.0273 36.4141V37.1367H30.5859ZM36.9531 36.8828C37.9167 36.8828 38.7435 37.0911 39.4336 37.5078C40.1367 37.9245 40.6706 38.5039 41.0352 39.2461C41.4128 39.9753 41.6016 40.8216 41.6016 41.7852V42.8398H34.4531C34.5833 43.5039 34.9089 44.0378 35.4297 44.4414C35.9505 44.8451 36.5885 45.0469 37.3438 45.0469C38.0599 45.0469 38.7109 44.9036 39.2969 44.6172C39.8828 44.3307 40.3516 44.0378 40.7031 43.7383L40.6836 46.043C40.3711 46.3164 39.9023 46.5964 39.2773 46.8828C38.6654 47.1562 37.9883 47.293 37.2461 47.293C36.2695 47.293 35.3776 47.0716 34.5703 46.6289C33.776 46.1862 33.138 45.5807 32.6562 44.8125C32.1875 44.0443 31.9531 43.1654 31.9531 42.1758C31.9531 41.2122 32.168 40.3333 32.5977 39.5391C33.0273 38.7448 33.6198 38.1068 34.375 37.625C35.1302 37.1302 35.9896 36.8828 36.9531 36.8828ZM36.8945 39.0508C36.2826 39.0508 35.7682 39.2396 35.3516 39.6172C34.9349 39.9948 34.6484 40.5026 34.4922 41.1406H39.2188C39.1667 40.4375 38.9062 39.9167 38.4375 39.5781C37.9688 39.2266 37.4544 39.0508 36.8945 39.0508ZM50.0781 39.9102C49.6615 39.6758 49.2253 39.5586 48.7695 39.5586C48.1966 39.5586 47.7214 39.7474 47.3438 40.125C46.9661 40.4896 46.6341 40.9453 46.3477 41.4922V47H43.8672V37.1367H46.3477V38.9922C46.6862 38.4062 47.0833 37.918 47.5391 37.5273C48.0078 37.1367 48.5352 36.9414 49.1211 36.9414C49.4727 36.9414 49.7917 37 50.0781 37.1172V39.9102ZM63.2227 33.6016C64.2383 33.6016 65.1237 33.7643 65.8789 34.0898C66.6341 34.4023 67.2201 34.8385 67.6367 35.3984C68.0664 35.9583 68.2812 36.6029 68.2812 37.332C68.2812 37.9831 68.1055 38.5625 67.7539 39.0703C67.4154 39.5781 66.9857 39.9688 66.4648 40.2422C66.8555 40.3464 67.2331 40.5221 67.5977 40.7695C67.9622 41.0039 68.2617 41.3229 68.4961 41.7266C68.7305 42.1172 68.8477 42.6185 68.8477 43.2305C68.8477 43.9596 68.6263 44.6302 68.1836 45.2422C67.7409 45.8411 67.1224 46.3229 66.3281 46.6875C65.5339 47.0521 64.6094 47.2344 63.5547 47.2344C62.9818 47.2344 62.3633 47.2083 61.6992 47.1562C61.0352 47.1172 60.4036 47.0586 59.8047 46.9805C59.2057 46.8893 58.6979 46.7982 58.2812 46.707V34.0898C59.0104 33.9336 59.7982 33.8164 60.6445 33.7383C61.4909 33.6471 62.3503 33.6016 63.2227 33.6016ZM63.2227 36.082C62.3893 36.082 61.6471 36.1471 60.9961 36.2773V39.4414H63.4375C64.1016 39.4414 64.6224 39.2786 65 38.9531C65.3906 38.6276 65.5859 38.2109 65.5859 37.7031C65.5859 37.1823 65.3516 36.7852 64.8828 36.5117C64.4271 36.2253 63.8737 36.082 63.2227 36.082ZM60.9961 44.5586C61.3607 44.6497 61.7773 44.7148 62.2461 44.7539C62.7279 44.7799 63.112 44.793 63.3984 44.793C64.1536 44.793 64.7721 44.6432 65.2539 44.3438C65.7487 44.0443 65.9961 43.6211 65.9961 43.0742C65.9961 42.5273 65.7422 42.1237 65.2344 41.8633C64.7266 41.5898 64.1146 41.4531 63.3984 41.4531H60.9961V44.5586ZM77.6367 39.9102C77.2201 39.6758 76.7839 39.5586 76.3281 39.5586C75.7552 39.5586 75.2799 39.7474 74.9023 40.125C74.5247 40.4896 74.1927 40.9453 73.9062 41.4922V47H71.4258V37.1367H73.9062V38.9922C74.2448 38.4062 74.6419 37.918 75.0977 37.5273C75.5664 37.1367 76.0938 36.9414 76.6797 36.9414C77.0312 36.9414 77.3503 37 77.6367 37.1172V39.9102ZM81.6211 32C82.0898 32 82.4935 32.1693 82.832 32.5078C83.1706 32.8333 83.3398 33.224 83.3398 33.6797C83.3398 34.1224 83.1706 34.513 82.832 34.8516C82.4935 35.1901 82.0898 35.3594 81.6211 35.3594C81.1523 35.3594 80.7487 35.1901 80.4102 34.8516C80.0846 34.513 79.9219 34.1224 79.9219 33.6797C79.9219 33.224 80.0846 32.8333 80.4102 32.5078C80.7487 32.1693 81.1523 32 81.6211 32ZM83.0664 37.1367V47H80.5859V39.2461H79.0039V37.1367H83.0664ZM95.5664 32.9375V47H93.0859V45.3398C92.7995 45.8737 92.3828 46.3359 91.8359 46.7266C91.2891 47.1042 90.651 47.293 89.9219 47.293C89.1276 47.293 88.3919 47.0911 87.7148 46.6875C87.0508 46.2839 86.5169 45.6979 86.1133 44.9297C85.7096 44.1615 85.5078 43.2305 85.5078 42.1367C85.5078 41.043 85.7096 40.1055 86.1133 39.3242C86.5299 38.543 87.0833 37.944 87.7734 37.5273C88.4766 37.0977 89.2513 36.8828 90.0977 36.8828C90.6315 36.8828 91.1719 37.0065 91.7188 37.2539C92.2656 37.5013 92.7214 37.8333 93.0859 38.25V32.9375H95.5664ZM90.6055 39.3242C90.0846 39.3242 89.6354 39.4609 89.2578 39.7344C88.8932 39.9948 88.6068 40.3398 88.3984 40.7695C88.1901 41.1862 88.0859 41.6419 88.0859 42.1367C88.0859 42.8789 88.3073 43.5104 88.75 44.0312C89.2057 44.5521 89.8047 44.8125 90.5469 44.8125C90.9896 44.8125 91.3997 44.6953 91.7773 44.4609C92.168 44.2266 92.4805 43.901 92.7148 43.4844C92.9622 43.0547 93.0859 42.5404 93.0859 41.9414V40.5352C92.7344 40.1576 92.3503 39.8646 91.9336 39.6562C91.5299 39.4349 91.0872 39.3242 90.6055 39.3242ZM102.52 36.8828C103.053 36.8828 103.594 37.0065 104.141 37.2539C104.688 37.5013 105.143 37.8333 105.508 38.25V37.1367H107.988V46.7461C107.988 47.8659 107.741 48.8099 107.246 49.5781C106.751 50.3594 106.094 50.9518 105.273 51.3555C104.453 51.7721 103.555 51.9805 102.578 51.9805C101.706 51.9805 100.99 51.8503 100.43 51.5898C99.8698 51.3294 99.349 51.0299 98.8672 50.6914V48.3477C99.1667 48.5299 99.4792 48.7253 99.8047 48.9336C100.143 49.1419 100.521 49.3177 100.938 49.4609C101.367 49.6042 101.862 49.6758 102.422 49.6758C103.008 49.6758 103.535 49.5651 104.004 49.3438C104.473 49.1224 104.837 48.8099 105.098 48.4062C105.371 48.0156 105.508 47.5664 105.508 47.0586V45.3398C105.221 45.8737 104.805 46.3359 104.258 46.7266C103.711 47.1042 103.073 47.293 102.344 47.293C101.549 47.293 100.814 47.0911 100.137 46.6875C99.4727 46.2839 98.9388 45.6979 98.5352 44.9297C98.1315 44.1615 97.9297 43.2305 97.9297 42.1367C97.9297 41.043 98.1315 40.1055 98.5352 39.3242C98.9518 38.543 99.5052 37.944 100.195 37.5273C100.898 37.0977 101.673 36.8828 102.52 36.8828ZM103.027 39.3242C102.507 39.3242 102.057 39.4609 101.68 39.7344C101.315 39.9948 101.029 40.3398 100.82 40.7695C100.612 41.1862 100.508 41.6419 100.508 42.1367C100.508 42.8789 100.729 43.5104 101.172 44.0312C101.628 44.5391 102.227 44.793 102.969 44.793C103.411 44.793 103.822 44.6823 104.199 44.4609C104.59 44.2266 104.902 43.901 105.137 43.4844C105.384 43.0547 105.508 42.5404 105.508 41.9414V40.5352C105.156 40.1576 104.772 39.8646 104.355 39.6562C103.952 39.4349 103.509 39.3242 103.027 39.3242ZM115.352 36.8828C116.315 36.8828 117.142 37.0911 117.832 37.5078C118.535 37.9245 119.069 38.5039 119.434 39.2461C119.811 39.9753 120 40.8216 120 41.7852V42.8398H112.852C112.982 43.5039 113.307 44.0378 113.828 44.4414C114.349 44.8451 114.987 45.0469 115.742 45.0469C116.458 45.0469 117.109 44.9036 117.695 44.6172C118.281 44.3307 118.75 44.0378 119.102 43.7383L119.082 46.043C118.77 46.3164 118.301 46.5964 117.676 46.8828C117.064 47.1562 116.387 47.293 115.645 47.293C114.668 47.293 113.776 47.0716 112.969 46.6289C112.174 46.1862 111.536 45.5807 111.055 44.8125C110.586 44.0443 110.352 43.1654 110.352 42.1758C110.352 41.2122 110.566 40.3333 110.996 39.5391C111.426 38.7448 112.018 38.1068 112.773 37.625C113.529 37.1302 114.388 36.8828 115.352 36.8828ZM115.293 39.0508C114.681 39.0508 114.167 39.2396 113.75 39.6172C113.333 39.9948 113.047 40.5026 112.891 41.1406H117.617C117.565 40.4375 117.305 39.9167 116.836 39.5781C116.367 39.2266 115.853 39.0508 115.293 39.0508Z" fill="#1D2534"/>
</svg>
