<svg width="12" height="12" viewBox="0 0 12 12" fill="none" xmlns="http://www.w3.org/2000/svg">
<g id="Checks">
<path id="Vector" d="M7.14427 4.15129L2.94427 8.27629C2.83908 8.37964 2.69751 8.43754 2.55005 8.43754C2.40259 8.43754 2.26102 8.37964 2.15583 8.27629L0.35583 6.50863C0.303106 6.45686 0.261095 6.39522 0.232196 6.32721C0.203297 6.25921 0.188076 6.18617 0.187401 6.11229C0.186039 5.96306 0.244011 5.81941 0.348564 5.71293C0.400334 5.66021 0.461981 5.6182 0.529986 5.5893C0.597992 5.5604 0.671023 5.54518 0.744911 5.5445C0.894134 5.54314 1.03779 5.60111 1.14427 5.70566L2.55052 7.0866L6.3563 3.34879C6.46272 3.24424 6.60631 3.18624 6.75549 3.18756C6.90467 3.18888 7.04721 3.2494 7.15177 3.35582C7.25632 3.46224 7.31432 3.60583 7.313 3.75501C7.31168 3.90419 7.25115 4.04674 7.14474 4.15129H7.14427ZM11.6513 3.35441C11.5995 3.30151 11.5378 3.25935 11.4697 3.23036C11.4015 3.20136 11.3284 3.1861 11.2543 3.18545C11.1803 3.18479 11.1069 3.19876 11.0382 3.22655C10.9696 3.25434 10.9071 3.2954 10.8544 3.34738L7.05005 7.0866L6.68067 6.72379C6.57426 6.61924 6.43066 6.56124 6.28148 6.56256C6.1323 6.56388 5.98976 6.6244 5.8852 6.73082C5.78065 6.83724 5.72265 6.98083 5.72397 7.13001C5.72529 7.27919 5.78582 7.42174 5.89224 7.52629L6.65583 8.27629C6.76102 8.37964 6.90258 8.43754 7.05005 8.43754C7.19751 8.43754 7.33908 8.37964 7.44427 8.27629L11.6443 4.15129C11.697 4.09952 11.7389 4.03788 11.7678 3.96989C11.7967 3.90189 11.8119 3.82888 11.8125 3.75501C11.8132 3.68115 11.7993 3.60787 11.7716 3.53938C11.744 3.47089 11.7031 3.40851 11.6513 3.35582V3.35441Z" fill="#00A58E"/>
</g>
</svg>
