<svg width="37" height="37" viewBox="0 0 37 37" fill="none" xmlns="http://www.w3.org/2000/svg">
<g id="Linkedin">
<path id="Oval 10 Copy 3" opacity="0.25" fill-rule="evenodd" clip-rule="evenodd" d="M18.5 36C28.165 36 36 28.165 36 18.5C36 8.83502 28.165 1 18.5 1C8.83502 1 1 8.83502 1 18.5C1 28.165 8.83502 36 18.5 36Z" stroke="#CCCCCC"/>
<g id="Group 36">
<path id="Oval" d="M14.4837 14.9671C15.303 14.9671 15.9672 14.3029 15.9672 13.4835C15.9672 12.6642 15.303 12 14.4837 12C13.6643 12 13.0001 12.6642 13.0001 13.4835C13.0001 14.3029 13.6643 14.9671 14.4837 14.9671Z" fill="#404C4D"/>
<path id="Shape" d="M15.7198 15.958H13.2473C13.1108 15.958 13 16.0688 13 16.2053V23.623C13 23.7595 13.1108 23.8703 13.2473 23.8703H15.7198C15.8563 23.8703 15.9671 23.7595 15.9671 23.623V16.2053C15.9671 16.0688 15.8563 15.958 15.7198 15.958Z" fill="#404C4D"/>
<path id="Shape_2" d="M23.088 15.5466C22.0313 15.1847 20.7094 15.5026 19.9167 16.0728C19.8895 15.9665 19.7926 15.8874 19.6774 15.8874H17.2048C17.0683 15.8874 16.9575 15.9981 16.9575 16.1346V23.5524C16.9575 23.6889 17.0683 23.7996 17.2048 23.7996H19.6774C19.8138 23.7996 19.9246 23.6889 19.9246 23.5524V18.2215C20.3242 17.8773 20.839 17.7675 21.2603 17.9465C21.6688 18.1191 21.9027 18.5404 21.9027 19.1017V23.5524C21.9027 23.6889 22.0135 23.7996 22.1499 23.7996H24.6225C24.759 23.7996 24.8698 23.6889 24.8698 23.5524V18.6037C24.8416 16.5718 23.8857 15.8196 23.088 15.5466Z" fill="#404C4D"/>
</g>
</g>
</svg>
