<svg width="12" height="12" viewBox="0 0 12 12" fill="none" xmlns="http://www.w3.org/2000/svg">
<path d="M7.14421 4.15117L2.94421 8.27617C2.83902 8.37951 2.69745 8.43742 2.54999 8.43742C2.40252 8.43742 2.26096 8.37951 2.15577 8.27617L0.355769 6.50851C0.303045 6.45674 0.261034 6.39509 0.232135 6.32709C0.203236 6.25908 0.188015 6.18605 0.18734 6.11216C0.185978 5.96294 0.24395 5.81929 0.348503 5.71281C0.400273 5.66008 0.46192 5.61807 0.529925 5.58917C0.597931 5.56028 0.670962 5.54505 0.74485 5.54438C0.894073 5.54302 1.03773 5.60099 1.14421 5.70554L2.55046 7.08648L6.35624 3.34867C6.46266 3.24411 6.60625 3.18612 6.75543 3.18744C6.90461 3.18876 7.04715 3.24928 7.15171 3.3557C7.25626 3.46212 7.31426 3.60571 7.31294 3.75489C7.31162 3.90407 7.25109 4.04661 7.14467 4.15117H7.14421ZM11.6512 3.35429C11.5994 3.30139 11.5377 3.25923 11.4696 3.23024C11.4015 3.20124 11.3283 3.18598 11.2543 3.18532C11.1802 3.18467 11.1068 3.19864 11.0382 3.22643C10.9695 3.25422 10.9071 3.29528 10.8544 3.34726L7.04999 7.08648L6.68061 6.72367C6.57419 6.61911 6.4306 6.56112 6.28142 6.56244C6.13224 6.56376 5.9897 6.62428 5.88514 6.7307C5.78059 6.83712 5.72259 6.98071 5.72391 7.12989C5.72523 7.27907 5.78576 7.42161 5.89217 7.52617L6.65577 8.27617C6.76096 8.37951 6.90252 8.43742 7.04999 8.43742C7.19745 8.43742 7.33902 8.37951 7.44421 8.27617L11.6442 4.15117C11.6969 4.0994 11.7389 4.03776 11.7678 3.96976C11.7966 3.90177 11.8118 3.82876 11.8125 3.75489C11.8131 3.68102 11.7992 3.60775 11.7716 3.53926C11.7439 3.47077 11.703 3.40839 11.6512 3.3557V3.35429Z" fill="#EF4444"/>
</svg>
