<svg width="34" height="25" viewBox="0 0 34 25" fill="none" xmlns="http://www.w3.org/2000/svg">
<path d="M0.5 25V18.1232C0.5 16.0936 0.885542 13.9565 1.65663 11.712C2.42771 9.46752 3.5 7.31853 4.87349 5.26504C6.24699 3.21155 7.86145 1.45654 9.71687 0L15.0663 3.79656C13.5964 5.92168 12.3434 8.14231 11.3072 10.4584C10.2711 12.7746 9.75301 15.2937 9.75301 18.0158V25H0.5ZM18.9337 25V18.1232C18.9337 16.0936 19.3193 13.9565 20.0904 11.712C20.8614 9.46752 21.9337 7.31853 23.3072 5.26504C24.6807 3.21155 26.2952 1.45654 28.1506 0L33.5 3.79656C32.0301 5.92168 30.7771 8.14231 29.741 10.4584C28.7048 12.7746 28.1867 15.2937 28.1867 18.0158V25H18.9337Z" fill="#F6A868"/>
</svg>
